<?xml version="1.0" standalone="no"?>
<!DOCTYPE svg PUBLIC "-//W3C//DTD SVG 20010904//EN"
 "http://www.w3.org/TR/2001/REC-SVG-20010904/DTD/svg10.dtd">
<svg version="1.0" xmlns="http://www.w3.org/2000/svg"
 width="915.000000pt" height="1020.000000pt" viewBox="0 0 915.000000 1020.000000"
 preserveAspectRatio="xMidYMid meet">

<g transform="translate(0.000000,1020.000000) scale(0.100000,-0.100000)"
fill="#000000" stroke="none">
<path d="M4457 9702 c-48 -223 -216 -401 -418 -443 -30 -6 -61 -13 -69 -16 -8
-2 31 -26 85 -52 188 -90 305 -210 392 -400 l36 -76 14 45 c72 225 217 373
437 446 88 30 87 33 -17 52 -94 18 -183 68 -264 148 -89 89 -129 164 -150 285
-9 49 -19 89 -23 89 -4 0 -14 -35 -23 -78z"/>
<path d="M5400 9253 c-32 -12 -50 -37 -50 -70 0 -78 99 -103 135 -33 31 59
-24 125 -85 103z"/>
<path d="M3632 9013 c-25 -101 -66 -168 -126 -207 -38 -25 -56 -31 -145 -53
l-34 -8 85 -42 c107 -53 159 -104 207 -206 21 -44 40 -76 43 -71 3 5 11 27 18
49 38 120 126 204 255 245 60 19 62 28 9 35 -147 21 -233 108 -270 272 -9 40
-17 73 -18 73 -2 0 -12 -39 -24 -87z"/>
<path d="M2466 8975 c-58 -53 -58 -124 0 -174 27 -25 44 -31 78 -31 109 0 155
142 68 210 -37 30 -111 27 -146 -5z"/>
<path d="M6502 8988 c-27 -27 -1 -78 38 -78 29 0 54 43 40 69 -12 24 -58 29
-78 9z"/>
<path d="M5276 8770 c-30 -135 -74 -182 -195 -210 -57 -13 -55 -22 10 -40 80
-22 146 -92 188 -198 16 -39 20 -44 26 -27 21 58 48 112 69 140 28 36 105 80
158 89 53 10 55 23 6 31 -58 10 -131 42 -157 68 -28 30 -58 103 -66 160 -4 26
-11 49 -15 52 -4 3 -15 -26 -24 -65z"/>
<path d="M3029 8817 c-30 -15 -38 -67 -14 -91 34 -34 95 -10 95 37 0 45 -42
73 -81 54z"/>
<path d="M5955 8819 c-51 -14 -86 -58 -87 -111 -2 -134 169 -173 227 -51 22
45 13 91 -23 126 -35 34 -77 46 -117 36z"/>
<path d="M8560 8594 c-102 -24 -252 -57 -335 -74 -82 -17 -352 -78 -600 -134
-247 -56 -517 -117 -600 -135 -82 -18 -314 -70 -515 -116 -201 -46 -423 -96
-495 -110 -71 -15 -136 -30 -143 -34 -9 -5 114 -72 335 -183 l349 -176 209 90
c116 49 334 143 486 209 152 65 279 119 282 119 2 0 119 50 258 111 140 61
265 115 279 119 14 5 139 58 278 118 138 61 252 109 252 107 0 -4 -76 -57
-345 -240 -66 -45 -168 -115 -227 -156 -59 -41 -186 -128 -283 -194 -96 -66
-254 -174 -350 -240 -96 -66 -234 -160 -306 -210 -73 -49 -149 -102 -170 -117
l-38 -28 38 -57 c21 -32 87 -128 147 -214 60 -85 156 -224 214 -307 58 -84
108 -151 112 -149 4 1 64 83 132 182 69 99 175 252 236 340 61 88 150 216 197
285 48 69 125 181 172 250 47 69 119 173 159 230 41 58 128 185 195 282 67 97
160 232 207 298 47 67 93 134 102 148 l17 27 -32 1 c-18 1 -115 -18 -217 -42z"/>
<path d="M6724 8556 c-42 -19 -64 -52 -64 -99 0 -53 23 -91 67 -112 33 -16 41
-16 77 -4 48 17 86 67 86 114 0 40 -33 83 -76 101 -41 17 -50 17 -90 0z"/>
<path d="M2105 8378 c-40 -22 -65 -52 -76 -91 -15 -57 17 -118 76 -147 147
-71 260 143 122 229 -37 23 -90 27 -122 9z"/>
<path d="M2700 8370 c-43 -43 -14 -110 48 -110 31 0 72 37 72 65 0 7 -9 24
-21 39 -25 32 -70 35 -99 6z"/>
<path d="M3290 8282 c-32 -11 -40 -51 -14 -76 23 -23 51 -20 69 8 26 40 -9 83
-55 68z"/>
<path d="M8132 8279 c-13 -5 -134 -58 -270 -118 -343 -151 -792 -348 -947
-414 -71 -31 -184 -81 -250 -111 l-120 -54 -3 -327 -2 -327 47 40 c27 23 62
53 78 67 17 15 58 50 93 78 l62 50 0 108 0 108 133 86 c72 48 222 145 332 216
110 71 278 180 373 242 432 279 532 347 532 357 0 12 -27 12 -58 -1z"/>
<path d="M4265 8223 c-635 -38 -1170 -254 -1707 -686 -118 -95 -326 -294 -390
-373 -208 -256 -274 -359 -408 -627 -96 -195 -165 -401 -206 -620 l-18 -98
-72 -49 c-268 -183 -521 -420 -640 -600 -89 -134 -124 -226 -131 -343 -15
-235 119 -412 428 -568 53 -27 102 -49 107 -49 35 0 11 -22 -62 -58 -212 -105
-395 -259 -456 -384 -79 -164 -38 -327 124 -491 63 -63 168 -143 261 -199 262
-156 616 -248 956 -248 130 0 148 4 143 28 -1 9 -6 34 -9 54 l-6 37 -82 -6
c-91 -6 -343 17 -467 44 -121 25 -265 80 -406 152 -152 79 -216 124 -308 217
-240 242 -149 458 289 685 143 74 257 121 415 170 l127 39 269 0 c532 0 1106
46 1469 116 298 58 429 98 559 168 72 39 358 187 519 270 66 34 195 49 222 26
23 -19 18 -75 -11 -140 -22 -50 -37 -66 -102 -113 -148 -105 -205 -139 -347
-212 -165 -85 -323 -139 -454 -156 -102 -14 -125 -29 -125 -82 1 -73 73 -164
230 -290 l71 -57 196 -40 c260 -52 291 -67 303 -142 7 -42 -35 -129 -96 -199
l-40 -46 -7 -149 c-3 -82 -9 -158 -13 -169 -5 -12 -48 -41 -106 -72 -55 -28
-130 -69 -167 -90 l-69 -38 -94 -200 c-51 -110 -93 -203 -94 -206 0 -9 146
-37 255 -49 117 -13 449 -13 573 0 476 52 934 218 1339 486 177 117 267 189
412 329 343 332 599 755 747 1240 104 338 150 645 139 910 -11 268 -52 563
-90 649 -13 29 -13 25 -14 -67 -3 -289 -70 -592 -166 -742 -32 -50 -72 -92
-79 -84 -2 2 -49 99 -104 214 -85 177 -106 213 -132 226 -37 20 -66 14 -86
-16 -14 -21 -11 -33 34 -156 55 -147 145 -376 169 -426 16 -35 98 -83 140 -83
15 0 27 -9 34 -23 13 -29 -2 -69 -65 -171 -97 -154 -228 -457 -306 -708 -45
-145 -57 -167 -208 -370 -109 -146 -252 -303 -316 -347 -35 -24 -146 -61 -184
-61 -22 0 -52 40 -52 69 0 17 9 67 20 113 51 211 74 526 47 655 -11 52 -11 66
1 89 20 39 27 137 12 174 -26 63 -116 96 -228 84 -59 -6 -68 -11 -125 -61 -85
-74 -157 -108 -229 -108 -82 0 -116 31 -191 176 -122 235 -137 285 -138 463
-1 89 4 124 21 176 62 184 206 426 319 533 65 62 82 72 303 168 132 57 166 69
184 60 26 -12 50 -74 59 -152 l6 -57 47 -12 c192 -49 402 1 529 128 79 79 103
126 103 199 0 162 -89 182 -248 54 -23 -18 -44 -32 -46 -30 -2 2 -11 26 -21
53 -30 79 -88 159 -140 194 -51 34 -74 39 -105 22 -40 -21 -43 -45 -15 -121
14 -38 25 -76 25 -82 0 -7 -36 26 -80 72 -76 80 -81 83 -115 78 -37 -6 -52
-17 -194 -146 -150 -136 -217 -175 -261 -151 -32 17 -61 92 -67 174 l-6 73 42
33 c52 42 106 120 127 185 20 59 61 107 163 193 90 75 359 261 520 358 105 63
116 73 137 119 24 51 30 91 16 111 -42 63 -183 24 -325 -88 -51 -40 -94 -75
-97 -78 -3 -4 -36 -31 -75 -60 -81 -63 -120 -79 -192 -80 -117 -1 -123 71 -22
268 58 113 121 200 212 297 25 26 28 35 23 70 -14 87 -98 176 -239 251 l-59
31 79 64 c44 35 93 73 108 84 l28 20 -94 52 c-312 171 -764 295 -1174 323
-146 9 -175 10 -280 3z m-455 -584 c0 -25 -41 -76 -77 -95 -21 -12 -76 -26
-121 -33 -46 -7 -90 -15 -98 -18 -23 -9 -17 49 9 88 25 38 41 44 142 57 104
13 145 14 145 1z m912 -73 c69 -13 134 -48 143 -78 3 -9 -8 -36 -26 -61 -39
-55 -47 -101 -36 -189 15 -115 -12 -146 -163 -189 -150 -43 -250 -104 -320
-197 -31 -42 -60 -46 -77 -10 -7 14 -36 112 -63 217 -67 256 -121 375 -194
420 l-31 20 37 15 c94 40 275 63 498 64 98 1 192 -4 232 -12z m-917 -415 c24
-11 49 -29 55 -41 15 -29 4 -124 -16 -141 -25 -20 -214 -40 -244 -26 -23 11
-25 17 -22 67 5 76 19 127 44 152 18 18 28 20 80 14 33 -3 79 -14 103 -25z
m-850 -7 c64 -30 71 -108 12 -145 -41 -26 -100 -20 -177 19 -72 36 -78 62 -21
92 32 16 111 42 149 49 2 1 19 -6 37 -15z m1018 -504 c44 -28 107 -108 107
-137 0 -31 -140 -62 -285 -63 -27 0 -95 -11 -150 -25 -55 -13 -108 -25 -117
-25 -70 -1 86 153 242 239 94 51 136 54 203 11z m1542 -42 c31 -14 31 -19 -2
-71 -15 -23 -28 -43 -29 -45 -1 -1 -22 18 -47 44 -48 48 -50 59 -13 74 30 12
61 12 91 -2z m-231 -100 c21 -30 21 -94 0 -102 -28 -11 -40 -7 -88 29 -49 38
-58 55 -28 55 9 0 33 9 52 19 45 25 46 25 64 -1z m-333 -156 c31 -26 19 -48
-32 -62 -57 -16 -70 -9 -59 31 15 52 50 64 91 31z m-738 -135 c49 -37 49 -68
1 -112 -20 -19 -48 -38 -63 -44 -14 -5 -226 -43 -469 -82 -297 -48 -449 -77
-459 -87 -8 -8 -46 -53 -86 -101 -39 -47 -102 -123 -141 -169 l-69 -83 -12
-187 c-12 -178 -29 -262 -53 -262 -24 0 -69 71 -117 186 l-54 129 -243 0 -243
0 -12 -25 c-6 -14 -24 -65 -38 -115 -35 -116 -40 -271 -12 -323 20 -37 67 -69
114 -78 29 -5 39 0 90 45 61 55 127 93 148 85 20 -8 25 -68 10 -138 l-14 -66
53 -75 c49 -67 86 -146 86 -182 0 -25 -39 -53 -74 -53 -28 0 -51 16 -150 104
-116 104 -117 105 -198 123 -46 10 -84 25 -89 33 -5 8 -61 110 -126 225 -65
116 -129 230 -143 255 -79 147 -129 225 -146 228 -11 1 -62 -6 -114 -16 l-95
-18 -7 -44 c-10 -69 -9 -285 2 -385 16 -141 56 -321 106 -481 25 -81 41 -150
37 -154 -4 -4 -51 -22 -103 -40 l-95 -33 -70 18 c-144 37 -341 143 -433 234
-110 108 -152 239 -118 369 35 137 122 270 284 435 139 142 385 336 502 397
142 73 1046 335 1350 392 305 56 510 89 645 102 217 23 223 23 411 22 l171 -1
36 -28z m401 11 c15 -24 -2 -50 -37 -59 -25 -7 -27 -5 -27 25 0 53 39 73 64
34z"/>
<path d="M1144 4655 c-21 -32 -11 -72 22 -87 20 -10 29 -8 52 9 34 25 39 56
13 82 -29 29 -67 27 -87 -4z"/>
<path d="M1717 7938 c-16 -82 -39 -140 -69 -174 -37 -42 -65 -57 -137 -74
l-54 -13 81 -38 c93 -45 129 -83 166 -173 15 -38 26 -55 30 -46 3 8 15 41 26
72 26 70 76 118 156 147 33 12 66 24 74 28 16 6 4 11 -90 34 -57 14 -123 78
-139 134 -6 22 -17 63 -24 90 l-13 50 -7 -37z"/>
<path d="M2246 7848 c-21 -29 -20 -40 5 -72 37 -47 99 -25 99 36 0 43 -15 58
-56 58 -23 0 -38 -7 -48 -22z"/>
<path d="M983 7503 c-34 -7 -80 -58 -87 -98 -13 -69 26 -131 93 -148 40 -10
82 4 117 40 28 28 34 41 34 76 0 53 -28 99 -73 120 -35 17 -43 18 -84 10z"/>
<path d="M1676 7284 c-33 -32 -13 -74 36 -74 38 0 55 33 33 66 -18 28 -46 31
-69 8z"/>
<path d="M8070 6943 c-28 -10 -69 -56 -75 -83 -14 -65 44 -130 116 -130 46 0
99 56 99 104 0 74 -75 132 -140 109z"/>
<path d="M722 6818 c-6 -6 -12 -24 -12 -40 0 -47 62 -65 95 -28 15 16 17 26 9
48 -7 21 -17 28 -44 30 -19 2 -41 -3 -48 -10z"/>
<path d="M1413 6802 c-63 -58 -64 -154 -3 -206 43 -35 91 -42 147 -21 38 15
49 25 66 64 17 40 18 51 8 91 -17 68 -60 100 -132 100 -48 0 -61 -4 -86 -28z"/>
<path d="M907 6589 c-4 -13 -7 -34 -7 -46 0 -43 -41 -132 -80 -172 -48 -49
-85 -69 -170 -91 -63 -17 -64 -18 -37 -29 161 -64 243 -143 292 -280 11 -31
14 -33 20 -16 58 159 137 240 280 285 60 19 62 27 8 34 -59 9 -137 44 -181 81
-40 33 -75 100 -92 175 -17 74 -25 89 -33 59z"/>
<path d="M7756 6325 c-43 -173 -71 -212 -171 -240 -33 -9 -67 -19 -75 -22 -9
-3 11 -15 48 -30 79 -32 141 -92 178 -171 15 -34 31 -59 35 -54 4 4 12 25 19
47 29 91 82 140 192 180 l63 23 -40 11 c-22 6 -46 11 -53 11 -25 0 -90 39
-116 70 -14 17 -32 55 -40 83 -8 29 -18 68 -23 87 l-10 35 -7 -30z"/>
<path d="M8264 6135 c-32 -49 23 -104 75 -75 24 12 29 68 9 88 -21 21 -66 14
-84 -13z"/>
<path d="M911 5714 c-12 -15 -21 -38 -21 -51 0 -34 42 -73 80 -73 38 0 80 39
80 73 0 42 -36 77 -80 77 -30 0 -43 -6 -59 -26z"/>
<path d="M8005 5610 c-42 -173 -111 -250 -260 -287 -36 -9 -65 -19 -65 -22 0
-3 32 -19 71 -35 101 -41 184 -120 236 -227 l39 -81 23 58 c51 137 137 218
269 258 34 11 62 22 62 26 0 4 -21 11 -47 15 -51 7 -137 42 -182 74 -39 28
-82 113 -106 211 l-21 85 -19 -75z"/>
<path d="M546 5615 c-36 -34 -36 -92 0 -129 72 -71 190 18 142 107 -28 53 -97
64 -142 22z"/>
<path d="M8191 4869 c-49 -46 -49 -102 1 -144 40 -34 87 -33 122 2 33 33 42
65 26 103 -24 59 -105 80 -149 39z"/>
<path d="M7795 4488 c-27 -121 -83 -186 -183 -213 -31 -9 -64 -19 -72 -21 -9
-4 7 -15 40 -28 116 -47 176 -106 216 -213 19 -49 26 -47 44 12 34 108 87 158
209 200 l66 22 -45 12 c-162 40 -201 79 -235 230 -9 39 -18 71 -20 71 -2 0
-11 -33 -20 -72z"/>
<path d="M1865 3968 c4 -13 36 -71 71 -130 233 -392 579 -746 991 -1016 85
-55 472 -257 479 -249 2 2 -21 66 -52 143 -148 370 -285 710 -292 720 -4 6
-33 42 -66 80 -106 125 -152 252 -144 397 l5 78 -26 -5 c-182 -37 -653 -37
-929 0 -42 5 -44 5 -37 -18z"/>
<path d="M7973 3791 c-87 -55 -80 -171 12 -215 48 -23 95 -14 134 25 52 52 48
132 -9 184 -30 27 -99 30 -137 6z"/>
<path d="M1385 3696 c-70 -30 -87 -120 -35 -179 51 -58 129 -55 178 8 42 54
19 145 -43 171 -42 17 -61 17 -100 0z"/>
<path d="M7371 3628 c-30 -114 -73 -167 -158 -192 -32 -10 -69 -21 -83 -26
l-25 -8 30 -11 c119 -47 183 -102 232 -202 l31 -64 11 40 c14 55 62 127 104
159 19 14 64 37 101 49 36 13 68 26 71 29 3 3 -23 11 -57 18 -139 27 -190 81
-222 235 l-12 59 -23 -86z"/>
<path d="M6710 3160 c-11 -11 -20 -31 -20 -44 0 -25 32 -56 57 -56 20 0 53 38
53 60 0 23 -33 60 -55 60 -8 0 -24 -9 -35 -20z"/>
<path d="M352 2968 c-23 -28 -186 -308 -225 -387 -51 -104 -55 -165 -15 -253
90 -197 301 -251 396 -101 34 55 235 444 230 447 -2 1 -24 19 -49 39 -25 20
-50 37 -55 37 -8 0 -33 -44 -182 -325 -30 -55 -61 -108 -70 -117 -54 -62 -187
46 -162 131 8 28 75 150 226 415 l22 38 -49 44 c-56 50 -53 48 -67 32z"/>
<path d="M6821 2773 c-11 -57 -47 -143 -73 -174 -29 -35 -101 -78 -151 -89
-74 -18 -75 -20 -21 -44 116 -49 182 -113 230 -220 16 -36 32 -66 35 -66 3 0
11 19 18 43 17 58 70 144 106 171 40 30 88 55 149 76 l51 17 -40 12 c-22 6
-46 11 -53 11 -21 0 -95 40 -125 69 -41 37 -74 107 -88 185 -7 36 -16 66 -19
66 -4 0 -13 -26 -19 -57z"/>
<path d="M8325 2759 c-27 -23 -51 -42 -52 -43 -2 -1 8 -88 21 -192 14 -104 33
-280 43 -391 9 -112 21 -203 26 -203 4 0 29 16 54 35 25 19 50 35 55 35 5 0 6
38 2 88 l-7 89 98 79 c161 131 136 122 200 74 l56 -41 37 29 c20 17 48 41 60
55 l24 25 -109 72 c-59 40 -185 130 -279 201 -95 71 -173 129 -175 129 -2 -1
-26 -19 -54 -41z m187 -240 c46 -34 84 -62 86 -64 2 -2 -31 -31 -72 -65 -49
-39 -78 -57 -80 -48 -5 15 -26 199 -26 222 0 9 2 16 5 16 3 0 42 -27 87 -61z"/>
<path d="M1510 2610 c-11 -11 -20 -29 -20 -40 0 -11 9 -29 20 -40 11 -11 29
-20 40 -20 28 0 60 35 60 64 0 27 -33 56 -62 56 -10 0 -27 -9 -38 -20z"/>
<path d="M7572 2618 c-7 -7 -12 -21 -12 -33 0 -46 64 -64 79 -22 18 49 -32 90
-67 55z"/>
<path d="M709 2264 c-82 -168 -149 -308 -149 -312 1 -10 96 -77 110 -77 7 0
52 83 101 185 48 101 92 186 96 187 5 2 14 -56 21 -129 7 -73 22 -202 34 -286
l21 -153 59 -35 c33 -20 61 -35 62 -33 2 2 19 42 39 89 70 171 217 528 223
543 4 11 -11 26 -51 52 -32 20 -58 35 -60 33 -2 -2 -22 -48 -44 -103 -89 -212
-126 -295 -132 -295 -3 0 -11 44 -18 98 -14 107 -51 440 -51 459 0 11 -91 83
-104 83 -4 0 -74 -138 -157 -306z"/>
<path d="M2095 2485 c-40 -39 -27 -104 26 -125 33 -14 62 -6 89 23 44 46 5
127 -60 127 -19 0 -40 -9 -55 -25z"/>
<path d="M7810 2360 c-40 -15 -254 -134 -278 -155 -5 -4 255 -660 261 -660 10
0 224 142 270 180 93 76 142 213 120 340 -38 219 -210 355 -373 295z m118
-144 c88 -46 148 -188 122 -285 -6 -23 -27 -60 -46 -81 -38 -42 -122 -102
-137 -97 -9 3 -167 373 -167 392 0 6 23 24 51 40 86 46 132 55 177 31z"/>
<path d="M6289 2267 c-31 -24 -42 -56 -28 -88 32 -80 149 -60 149 25 0 58 -76
98 -121 63z"/>
<path d="M2598 2190 c-83 -65 -43 -200 60 -200 52 0 84 19 105 63 23 47 16 87
-25 127 -37 37 -100 42 -140 10z"/>
<path d="M1420 2093 c-18 -49 -75 -196 -127 -327 -51 -132 -90 -242 -86 -246
4 -4 33 -21 63 -38 l56 -31 27 77 c16 42 71 190 123 329 52 139 94 254 94 257
0 5 -104 66 -112 66 -3 0 -20 -39 -38 -87z"/>
<path d="M5651 2112 c-35 -19 -71 -72 -71 -105 0 -33 29 -82 59 -100 41 -24
102 -22 136 5 74 58 63 163 -20 202 -43 21 -63 20 -104 -2z"/>
<path d="M1647 1873 c-4 -108 -7 -285 -7 -393 l0 -196 55 -27 c67 -33 72 -33
96 -4 69 80 402 536 403 551 1 8 -113 61 -117 55 -1 -2 -70 -94 -152 -204
l-150 -200 -3 277 -2 276 -55 31 c-30 17 -56 31 -58 31 -2 0 -7 -88 -10 -197z"/>
<path d="M7143 1992 l-53 -26 0 -141 c0 -77 -7 -255 -15 -395 -7 -140 -13
-256 -11 -258 2 -1 30 9 63 23 55 24 61 30 67 63 3 20 6 58 6 84 l0 46 126 66
c69 36 130 66 134 66 5 0 31 -23 58 -52 l49 -51 61 34 c34 18 62 36 62 39 0 3
-57 67 -126 140 -69 74 -176 192 -237 263 -60 70 -115 127 -121 126 -6 0 -35
-12 -63 -27z m107 -219 c13 -16 46 -54 73 -86 28 -31 48 -59 46 -61 -7 -6
-148 -76 -154 -76 -3 0 -5 56 -5 125 0 69 4 125 8 125 5 0 19 -12 32 -27z"/>
<path d="M4000 1942 c-49 -16 -66 -74 -32 -105 40 -36 102 -9 102 45 0 34 -41
70 -70 60z"/>
<path d="M6665 1775 c-16 -7 -38 -16 -47 -19 -21 -6 -25 -41 -34 -251 -3 -88
-9 -190 -13 -227 l-6 -68 -60 98 c-33 53 -88 147 -123 207 -35 61 -66 113 -70
117 -4 4 -33 -1 -66 -10 l-59 -17 7 -120 c3 -66 9 -229 13 -362 3 -133 9 -247
13 -253 8 -12 126 21 124 36 -5 32 -15 434 -11 434 3 0 26 -37 53 -82 66 -116
155 -261 169 -276 10 -11 22 -9 67 8 l55 20 11 193 c7 105 12 212 12 237 0 27
4 40 9 35 8 -8 76 -152 163 -342 l19 -42 56 25 c32 13 59 27 62 29 2 3 -28 73
-68 157 -40 84 -107 227 -149 317 -43 91 -82 166 -87 167 -6 1 -23 -3 -40 -11z"/>
<path d="M2290 1748 c-18 -45 -182 -669 -177 -675 11 -10 360 -134 364 -129
10 10 32 121 25 127 -4 3 -50 21 -102 39 -142 49 -131 36 -107 132 11 46 21
85 23 87 2 2 54 -13 115 -33 62 -20 116 -33 120 -29 7 8 31 114 27 118 -2 2
-50 19 -108 40 -58 20 -108 40 -112 44 -7 6 15 107 24 117 2 2 45 -12 96 -31
124 -47 128 -46 141 15 6 28 11 57 11 64 0 7 -54 32 -127 59 -71 25 -145 53
-166 62 -36 15 -37 15 -47 -7z"/>
<path d="M5723 1738 c-27 -5 -47 -17 -54 -30 -13 -24 -70 -190 -66 -194 1 -1
20 1 42 5 39 6 42 10 97 111 32 58 58 108 58 113 0 9 -23 8 -77 -5z"/>
<path d="M2750 1593 c0 -5 -32 -158 -70 -342 -39 -183 -70 -339 -70 -346 0
-12 118 -50 128 -41 2 3 17 68 32 146 14 77 29 142 32 145 3 4 11 -18 18 -47
7 -29 28 -108 47 -175 l36 -121 70 -16 c39 -9 72 -15 74 -13 2 2 -6 30 -17 63
-18 52 -79 255 -83 277 -1 5 15 14 36 22 53 18 83 49 101 103 32 91 15 186
-43 243 -29 29 -59 44 -148 73 -114 36 -143 42 -143 29z m165 -177 c45 -19 69
-56 60 -96 -9 -39 -39 -52 -97 -42 l-43 8 1 44 c0 63 12 100 30 100 8 0 30 -6
49 -14z"/>
<path d="M5665 1487 c-91 -30 -160 -85 -208 -165 -100 -164 -87 -366 31 -494
168 -182 476 -106 574 142 32 81 31 213 -1 298 -30 80 -103 162 -175 197 -63
31 -163 41 -221 22z m182 -163 c198 -116 110 -459 -117 -458 -207 0 -289 294
-122 435 77 64 156 72 239 23z"/>
<path d="M3327 1456 c-77 -28 -117 -86 -117 -168 1 -70 21 -111 119 -242 83
-111 97 -140 87 -174 -7 -20 -45 -42 -74 -42 -23 0 -68 42 -88 83 -9 18 -18
34 -20 36 -7 8 -114 -44 -114 -56 0 -19 27 -71 58 -112 34 -46 113 -81 182
-81 67 0 113 22 154 73 26 32 31 48 34 105 4 84 -9 117 -87 215 -90 113 -131
173 -131 190 0 22 28 47 52 47 12 0 40 -19 64 -44 l42 -44 46 31 c25 18 46 36
46 40 0 22 -65 99 -103 121 -55 32 -103 39 -150 22z"/>
<path d="M5148 1383 c-34 -5 -34 -4 -13 -267 9 -104 14 -191 11 -193 -6 -6
-98 120 -206 285 l-94 142 -57 0 c-32 0 -59 -3 -61 -7 -3 -5 1 -168 6 -363
l11 -355 69 -3 68 -3 -6 138 c-3 76 -9 183 -12 238 l-6 100 32 -44 c18 -25 50
-72 72 -105 21 -32 77 -113 125 -178 l87 -119 61 7 c33 4 62 8 64 11 5 4 -15
251 -45 557 -8 82 -14 153 -14 157 0 9 -41 10 -92 2z"/>
<path d="M3887 1356 c-138 -58 -215 -165 -232 -323 -18 -155 69 -319 203 -385
60 -30 75 -33 152 -33 97 0 161 23 218 78 92 87 127 181 120 318 -4 78 -9 97
-42 164 -65 126 -161 193 -290 201 -59 4 -80 1 -129 -20z m214 -144 c56 -37
73 -56 99 -115 32 -71 29 -154 -7 -225 -37 -76 -89 -112 -169 -119 -51 -4 -66
-1 -114 24 -34 18 -66 45 -85 72 -27 38 -30 52 -33 129 -4 96 8 136 55 192 61
73 175 92 254 42z"/>
</g>
</svg>
